<svg width="42" height="42" viewBox="0 0 42 42" fill="none" xmlns="http://www.w3.org/2000/svg">
<path d="M2 2H8.90909L13.5382 26.2295C13.6961 27.0626 14.1288 27.811 14.7603 28.3436C15.3919 28.8762 16.1821 29.1591 16.9927 29.1429H33.7818C34.5924 29.1591 35.3827 28.8762 36.0142 28.3436C36.6458 27.811 37.0784 27.0626 37.2364 26.2295L40 11.0476H10.6364M17.5455 38.1905C17.5455 39.1898 16.7721 40 15.8182 40C14.8642 40 14.0909 39.1898 14.0909 38.1905C14.0909 37.1911 14.8642 36.381 15.8182 36.381C16.7721 36.381 17.5455 37.1911 17.5455 38.1905ZM36.5455 38.1905C36.5455 39.1898 35.7721 40 34.8182 40C33.8642 40 33.0909 39.1898 33.0909 38.1905C33.0909 37.1911 33.8642 36.381 34.8182 36.381C35.7721 36.381 36.5455 37.1911 36.5455 38.1905Z" stroke="#1E1E1E" stroke-width="4" stroke-linecap="round" stroke-linejoin="round"/>
</svg>
