<svg width="42" height="42" viewBox="0 0 42 42" fill="none" xmlns="http://www.w3.org/2000/svg">
<path d="M37.0698 5.35948C36.1413 4.29442 35.0389 3.44955 33.8255 2.87312C32.6121 2.29669 31.3116 2 29.9982 2C28.6848 2 27.3842 2.29669 26.1708 2.87312C24.9574 3.44955 23.855 4.29442 22.9265 5.35948L20.9995 7.5688L19.0725 5.35948C17.197 3.20915 14.6532 2.00111 12.0009 2.00111C9.34846 2.00111 6.80471 3.20915 4.92918 5.35948C3.05366 7.5098 2 10.4263 2 13.4673C2 16.5083 3.05366 19.4248 4.92918 21.5751L20.9995 40L37.0698 21.5751C37.9988 20.5105 38.7357 19.2466 39.2385 17.8554C39.7412 16.4642 40 14.9731 40 13.4673C40 11.9614 39.7412 10.4703 39.2385 9.07915C38.7357 7.68799 37.9988 6.42403 37.0698 5.35948Z" stroke="#1E1E1E" stroke-width="4" stroke-linecap="round" stroke-linejoin="round"/>
</svg>
